<svg width="48" height="48" viewBox="0 0 48 48" fill="none" xmlns="http://www.w3.org/2000/svg">
<ellipse cx="23.8834" cy="24" rx="23.8834" ry="24" fill="#F3A47D"/>
<path d="M34.1914 15.457H33.5322C33.2067 15.3594 32.694 15.2373 31.9941 15.0908C31.3105 14.9281 30.6595 14.8467 30.041 14.8467C28.3158 14.8467 27.1357 15.1641 26.501 15.7988C25.8825 16.4336 25.5732 17.6217 25.5732 19.3633V19.583H32.3604V25.54H25.8662V47H17.3213V25.54H13.9033V19.583H17.3213V18.8262C17.3213 15.4733 18.2002 12.9587 19.958 11.2822C21.7158 9.60579 24.377 8.76758 27.9414 8.76758C29.1784 8.76758 30.334 8.81641 31.4082 8.91406C32.4824 8.99544 33.4102 9.10938 34.1914 9.25586V15.457Z" fill="white"/>
</svg>
