<svg width="48" height="48" viewBox="0 0 48 48" fill="none" xmlns="http://www.w3.org/2000/svg">
<ellipse cx="23.8834" cy="24" rx="23.8834" ry="24" fill="#F3A47D"/>
<path d="M17.7298 17.4033V34H12.0023V17.4033H17.7298ZM14.888 10.7236C15.7083 10.7236 16.4212 10.8945 17.0267 11.2363C17.6419 11.5781 17.9495 12.2568 17.9495 13.2725C17.9495 14.2588 17.6419 14.9277 17.0267 15.2793C16.4212 15.6211 15.7083 15.792 14.888 15.792C14.0482 15.792 13.3304 15.6211 12.7347 15.2793C12.1487 14.9277 11.8558 14.2588 11.8558 13.2725C11.8558 12.2568 12.1487 11.5781 12.7347 11.2363C13.3304 10.8945 14.0482 10.7236 14.888 10.7236ZM32.1146 17.1104C33.8235 17.1104 35.22 17.5938 36.304 18.5605C37.388 19.5273 37.93 21.0752 37.93 23.2041V34H32.2025V24.9473C32.2025 23.8438 32.0413 23.0137 31.7191 22.457C31.4066 21.8906 30.8987 21.6074 30.1956 21.6074C29.1116 21.6074 28.3841 22.0518 28.013 22.9404C27.6419 23.8193 27.4564 25.084 27.4564 26.7344V34H21.7288V17.4033H26.0501L26.8265 19.6006H27.0462C27.3978 19.0732 27.8177 18.624 28.306 18.2529C28.7943 17.8818 29.3558 17.5986 29.9905 17.4033C30.6253 17.208 31.3333 17.1104 32.1146 17.1104Z" fill="white"/>
</svg>
